<svg id="Logo" xmlns="http://www.w3.org/2000/svg" viewBox="0 0 165.01 154.4"><defs><style>.cls-1{fill:#2484c6;}.cls-2{fill:#1a6497;}.cls-3{fill:#a23f97;}.cls-4{fill:#7b2972;}.cls-5{fill:#ef4056;}.cls-6{fill:#b22c3e;}.cls-7{fill:#ffc20e;}.cls-8{fill:#e39717;}.cls-9{fill:#8dc63f;}.cls-10{fill:#66952e;}.cls-11{fill:#00b6be;}.cls-12{fill:#007c81;}.cls-13{fill:#8e3484;}.cls-14{fill:#2073ae;}.cls-15{fill:#00a0a6;}.cls-16{fill:#79ad36;}.cls-17{fill:#eca516;}.cls-18{fill:#cf364a;}</style></defs><title>funcoin-logo</title><polygon class="cls-1" points="144.64 94.16 128.26 122.53 82.5 96.12 71.24 102.62 71.24 119.84 82.5 113.33 133.71 142.9 165.01 88.7 150.21 80.16 135.3 88.76 144.64 94.16"/><polygon class="cls-2" points="82.5 113.33 82.5 96.12 71.24 102.62 71.24 119.84 82.5 113.33"/><polygon class="cls-3" points="66.12 139.49 66.12 86.66 54.85 80.16 39.95 88.76 51.21 95.27 51.21 154.4 113.8 154.4 113.8 137.31 98.89 128.71 98.89 139.49 66.12 139.49"/><polygon class="cls-4" points="66.12 86.66 54.85 80.16 39.95 88.76 51.21 95.27 66.12 86.66"/><polygon class="cls-5" points="46.09 117.14 36.75 122.53 20.37 94.16 66.12 67.74 66.12 54.73 51.21 46.13 51.21 59.13 0 88.7 31.29 142.9 46.09 134.36 46.09 117.14"/><polygon class="cls-6" points="66.12 67.74 66.12 54.73 51.21 46.13 51.21 59.13 66.12 67.74"/><polygon class="cls-7" points="20.37 60.24 36.75 31.86 82.5 58.28 93.77 51.78 93.77 34.56 82.5 41.06 31.29 11.5 0 65.7 14.8 74.24 29.71 65.64 20.37 60.24"/><polygon class="cls-8" points="82.5 58.28 93.77 51.78 93.77 34.56 82.5 41.06 82.5 58.28"/><polygon class="cls-9" points="98.89 14.91 98.89 67.74 110.15 74.24 125.06 65.64 113.8 59.13 113.8 0 51.21 0 51.21 17.09 66.12 25.69 66.12 14.91 98.89 14.91"/><polygon class="cls-10" points="98.89 67.74 110.15 74.24 125.06 65.64 113.8 59.13 98.89 67.74"/><polygon class="cls-11" points="118.92 37.26 128.26 31.87 144.64 60.24 98.89 86.66 98.89 99.67 113.8 108.27 113.8 95.27 165.01 65.7 133.71 11.5 118.92 20.04 118.92 37.26"/><polygon class="cls-12" points="113.8 95.27 98.89 86.66 98.89 99.67 113.8 108.27 113.8 95.27"/><polygon class="cls-13" points="113.8 143.21 113.8 137.31 98.89 128.71 98.89 134.6 113.8 143.21"/><polygon class="cls-14" points="155.31 83.1 150.21 80.16 135.3 88.76 140.41 91.71 155.31 83.1"/><polygon class="cls-15" points="124.02 17.09 118.92 20.04 118.92 37.26 124.02 34.31 124.02 17.09"/><polygon class="cls-16" points="51.21 11.19 51.21 17.09 66.12 25.69 66.12 19.8 51.21 11.19"/><polygon class="cls-17" points="9.69 71.3 14.8 74.24 29.71 65.64 24.6 62.69 9.69 71.3"/><polygon class="cls-18" points="40.99 137.31 46.09 134.36 46.09 117.14 40.99 120.09 40.99 137.31"/></svg>